# xmcd CD database file
#
# Track frame offsets:
#	150
#	21866
#	45171
#	67577
#	90602
#	119187
#	143809
#	167992
#	191567
#	216557
#	243404
#	258539
#
# Disc length: 3677 seconds
#
# Revision: 0
# Processed by: cddbd v1.5.2PL0 Copyright (c) Steve Scherf et al.
# Submitted via: CDex 1.75
#
DISCID=ad0e5b0c
DTITLE=Eckhart Tolle - In the Presence of a Great Mystery
DYEAR=2002
DGENRE=New Age
TTITLE0=01 01
TTITLE1=01 02
TTITLE2=01 03
TTITLE3=01 04
TTITLE4=01 05
TTITLE5=01 06
TTITLE6=01 07
TTITLE7=01 08
TTITLE8=01 09
TTITLE9=01 10
TTITLE10=01 11
TTITLE11=01 12
EXTD=YEAR: 2002
EXTT0=
EXTT1=
EXTT2=
EXTT3=
EXTT4=
EXTT5=
EXTT6=
EXTT7=
EXTT8=
EXTT9=
EXTT10=
EXTT11=
PLAYORDER=
